<?xml version="1.0" encoding="UTF-8"?>
<svg id="Layer_1" data-name="Layer 1" xmlns="http://www.w3.org/2000/svg" viewBox="0 0 50 50">
  <defs>
    <style>
      .cls-1 {
        fill: #fff;
      }

      .cls-1, .cls-2 {
        stroke: #231f20;
        stroke-linejoin: round;
      }

      .cls-2 {
        fill: none;
        stroke-linecap: round;
      }
    </style>
  </defs>
  <path class="cls-1" d="M34.81,27.9c0,6.05-4.91,10.96-10.96,10.96s-10.96-4.91-10.96-10.96,4.91-10.96,10.96-10.96c1.88,0,3.64.47,5.18,1.3,3.44,1.85,5.77,5.48,5.77,9.66Z"/>
  <path class="cls-1" d="M29.31,18.58l4.84,6.04c.14.18.4.21.59.07l1.5-1.13c.19-.14.22-.42.08-.6l-4.84-6.04c-.14-.18-.4-.21-.59-.07l-1.5,1.13c-.19.14-.22.42-.08.6Z"/>
  <path class="cls-2" d="M34.21,19.94c1.1-3.52.51-5.2-.19-6.09-1.34-1.7-3.61-1.12-5.15-2.84-1.44-1.61-1.25-4.11-.91-5.87"/>
</svg>