<?xml version="1.0" encoding="UTF-8"?>
<svg id="Layer_1" data-name="Layer 1" xmlns="http://www.w3.org/2000/svg" viewBox="0 0 50 50">
  <defs>
    <style>
      .cls-1, .cls-2, .cls-3 {
        stroke: #231f20;
        stroke-linejoin: round;
      }

      .cls-1, .cls-3 {
        fill: #fff;
      }

      .cls-2 {
        fill: none;
      }

      .cls-2, .cls-3 {
        stroke-linecap: round;
      }
    </style>
  </defs>
  <g>
    <rect class="cls-3" x="11.86" y="35.39" width="26.28" height="5.2" rx="1.06" ry="1.06"/>
    <path class="cls-3" d="M16.21,35.34v-16.89c0-.19.08-.38.21-.52l8.05-8.3c.29-.3.77-.3,1.06-.01l8.03,7.96c.14.14.22.33.22.53v17.23h-17.57Z"/>
    <path class="cls-2" d="M16.21,35.34l8.59-25.65c.06-.19.34-.19.4,0l8.59,25.65h-17.57Z"/>
  </g>
  <g>
    <path class="cls-1" d="M33.02,17.07c.13.13.33.14.48.04l5.69-4.04c.19-.12.1-.42-.13-.42l-5.16.11c-.18,0-.29-.19-.2-.34l3.34-5.62c.12-.2-.11-.43-.31-.31l-5.55,3.43c-.15.09-.34-.02-.34-.19l.04-5.27c0-.22-.29-.31-.41-.13l-4.03,5.75c-.11.15-.1.35.03.48l6.56,6.51Z"/>
    <circle class="cls-1" cx="37" cy="6.51" r="1.33"/>
    <circle class="cls-1" cx="39.39" cy="12.62" r="1.33"/>
    <circle class="cls-1" cx="30.72" cy="4.01" r="1.33"/>
  </g>
</svg>