<?xml version="1.0" encoding="UTF-8"?>
<svg id="Layer_1" data-name="Layer 1" xmlns="http://www.w3.org/2000/svg" viewBox="0 0 50 50">
  <defs>
    <style>
      .cls-1 {
        fill: #fff;
        stroke: #231f20;
        stroke-linecap: round;
        stroke-linejoin: round;
      }
    </style>
  </defs>
  <path class="cls-1" d="M25,8.1c-2.93,0-5.3,2.37-5.3,5.3s2.37,5.3,5.3,5.3,5.3-2.37,5.3-5.3-2.37-5.3-5.3-5.3ZM25,15.89c-1.38,0-2.49-1.12-2.49-2.49s1.12-2.49,2.49-2.49,2.49,1.12,2.49,2.49-1.12,2.49-2.49,2.49Z"/>
  <path class="cls-1" d="M26.59,22.06h3.34c.93,0,1.68-.75,1.68-1.68h0c0-.93-.75-1.68-1.68-1.68h-9.87c-.93,0-1.68.75-1.68,1.68h0c0,.93.75,1.68,1.68,1.68h3.34c.68,9.55-1.29,16.17-5.92,19.85h15.03c-4.66-4.2-6.6-10.85-5.92-19.85Z"/>
</svg>