<?xml version="1.0" encoding="UTF-8"?>
<svg id="Layer_1" data-name="Layer 1" xmlns="http://www.w3.org/2000/svg" viewBox="0 0 50 50">
  <defs>
    <style>
      .cls-1 {
        fill: #fff;
        stroke: #231f20;
        stroke-linejoin: round;
      }
    </style>
  </defs>
  <path class="cls-1" d="M37.63,10.46H12.37c-1.06,0-1.91.86-1.91,1.91v25.26c0,1.06.86,1.91,1.91,1.91h25.26c1.06,0,1.91-.86,1.91-1.91V12.37c0-1.06-.86-1.91-1.91-1.91ZM13.83,14.78c0-.53.43-.95.95-.95h7.45c.53,0,.95.43.95.95v1.87c0,.53-.43.95-.95.95h-3.67c-.53,0-.95.43-.95.95v3.67c0,.53-.43.95-.95.95h-1.87c-.53,0-.95-.43-.95-.95v-7.45ZM23.18,35.22c0,.53-.43.95-.95.95h-7.45c-.53,0-.95-.43-.95-.95v-7.45c0-.53.43-.95.95-.95h1.87c.53,0,.95.43.95.95v3.67c0,.53.43.95.95.95h3.67c.53,0,.95.43.95.95v1.87ZM20.46,25c0-2.51,2.03-4.54,4.54-4.54s4.54,2.03,4.54,4.54-2.03,4.54-4.54,4.54-4.54-2.03-4.54-4.54ZM36.17,35.22c0,.53-.43.95-.95.95h-7.45c-.53,0-.95-.43-.95-.95v-1.87c0-.53.43-.95.95-.95h3.67c.53,0,.95-.43.95-.95v-3.67c0-.53.43-.95.95-.95h1.87c.53,0,.95.43.95.95v7.45ZM36.17,22.23c0,.53-.43.95-.95.95h-1.87c-.53,0-.95-.43-.95-.95v-3.67c0-.53-.43-.95-.95-.95h-3.67c-.53,0-.95-.43-.95-.95v-1.87c0-.53.43-.95.95-.95h7.45c.53,0,.95.43.95.95v7.45Z"/>
</svg>