<?xml version="1.0" encoding="UTF-8"?>
<svg id="Layer_1" data-name="Layer 1" xmlns="http://www.w3.org/2000/svg" viewBox="0 0 50 50">
  <defs>
    <style>
      .cls-1 {
        fill: #fff;
        stroke: #231f20;
        stroke-linejoin: round;
      }
    </style>
  </defs>
  <path class="cls-1" d="M27.79,14.32c0,.57.46,1.03,1.03,1.03h2.72c.57,0,1.03-.46,1.04-1.03v-1.1c.01-.57.48-1.03,1.05-1.03h3.5c.39,0,.71.32.71,1.98v5.12c0,.34-.46.8-1.03.8h-5.35c-.57,0-1.03.46-1.03,1.03l1.81,12.62c0,.57.46,1.03,1.03,1.03h3.17c.57,0,1.03.46,1.03,1.03v3.71c0,.57-.46,1.03-1.03,1.03H13.55c-.57,0-1.03-.46-1.03-1.03v-3.71c0-.57.46-1.03,1.03-1.03h3.17c.57,0,1.03-.46,1.03-1.03l2.27-12.62c0-.57-.46-1.03-1.03-1.03h-5.79c-.57,0-1.03-.46-1.03-.8v-5.12c0-1.66.32-1.98.71-1.98h3.14c.57,0,1.03.46,1.03,1.03v1.09c-.01.57.45,1.04,1.02,1.04h3.09c.57,0,1.03-.46,1.03-1.03l.05-4.23c0-.3-.24-.55-.54-.55h-1.1c-.51,0-.74-.63-.35-.96l4.41-3.74c.2-.17.5-.17.7,0l4.41,3.74c.39.33.15.96-.35.96h-1.07c-.3,0-.54.24-.54.54v4.23Z"/>
</svg>