<?xml version="1.0" encoding="UTF-8"?>
<svg id="Layer_1" data-name="Layer 1" xmlns="http://www.w3.org/2000/svg" viewBox="0 0 50 50">
  <defs>
    <style>
      .cls-1, .cls-2, .cls-3, .cls-4, .cls-5 {
        stroke: #231f20;
        stroke-linejoin: round;
      }

      .cls-1, .cls-4 {
        fill: #fff;
      }

      .cls-2, .cls-3 {
        fill: none;
      }

      .cls-2, .cls-4, .cls-5 {
        stroke-linecap: round;
      }

      .cls-5 {
        fill: #231f20;
      }
    </style>
  </defs>
  <g>
    <path class="cls-1" d="M34.81,30.9c0,6.05-4.91,10.96-10.96,10.96s-10.96-4.91-10.96-10.96,4.91-10.96,10.96-10.96c1.88,0,3.64.47,5.18,1.3,3.44,1.85,5.77,5.48,5.77,9.66Z"/>
    <path class="cls-1" d="M29.31,21.58l4.84,6.04c.14.18.4.21.59.07l1.5-1.13c.19-.14.22-.42.08-.6l-4.84-6.04c-.14-.18-.4-.21-.59-.07l-1.5,1.13c-.19.14-.22.42-.08.6Z"/>
    <path class="cls-2" d="M34.21,22.94c1.1-3.52.51-5.2-.19-6.09-1.11-1.4-3.2-.77-5.15-2.84-.83-.88-1.1-1.65-1.21-2.06-.28-1.07-.08-2,.06-2.46"/>
  </g>
  <path class="cls-3" d="M30.09,32.52l-10.04,3.59c-.4.14-.8-.2-.73-.62l1.91-10.49c.08-.42.58-.6.9-.32l8.13,6.9c.32.27.23.8-.17.94Z"/>
  <circle class="cls-5" cx="28.07" cy="7.81" r=".04"/>
  <line class="cls-4" x1="28.1" y1="6.34" x2="28.37" y2="3.89"/>
  <line class="cls-4" x1="26.89" y1="6.87" x2="23.63" y2="3.52"/>
  <line class="cls-4" x1="26.88" y1="8.33" x2="24.53" y2="9.49"/>
  <line class="cls-4" x1="29.54" y1="7.4" x2="30.67" y2="7.08"/>
  <line class="cls-4" x1="28.97" y1="8.87" x2="31.91" y2="11.22"/>
</svg>