<?xml version="1.0" encoding="UTF-8"?>
<svg id="Layer_1" data-name="Layer 1" xmlns="http://www.w3.org/2000/svg" viewBox="0 0 50 50">
  <defs>
    <style>
      .cls-1 {
        fill: #fff;
      }

      .cls-1, .cls-2, .cls-3 {
        stroke: #231f20;
        stroke-linejoin: round;
      }

      .cls-2 {
        fill: none;
      }

      .cls-3 {
        fill: #231f20;
      }
    </style>
  </defs>
  <g>
    <path class="cls-1" d="M13.63,34.61c-.2.2-.31.48-.31.77v3.89c0,.6.49,1.09,1.09,1.09h21.17c.6,0,1.09-.49,1.09-1.09v-3.89c0-.28-.11-.56-.31-.77"/>
    <path class="cls-2" d="M25,15.35v7.06c2.05-2.5,5.27-3.66,8.31-2.98,3.66.82,5.76,4.03,6.33,6.87.83,4.16-1.66,7.29-2.62,8.3-.21.22-.49.34-.8.34H13.78c-.3,0-.59-.12-.8-.34-.95-1.01-3.45-4.14-2.62-8.3.57-2.84,2.67-6.06,6.33-6.87,3.03-.68,6.25.49,8.31,2.98"/>
  </g>
  <polygon class="cls-1" points="37.02 34.59 25 22.4 12.98 34.59 13.32 34.93 36.68 34.93 37.02 34.59"/>
  <path class="cls-2" d="M28.14,31.37l-4.47,1.6c-.4.14-.8-.2-.73-.62l.85-4.67c.08-.42.58-.6.9-.32l3.62,3.07c.32.27.23.8-.17.94Z"/>
  <path class="cls-3" d="M25.14,21.19c0-2.95,0-4.91-4.04-6.62q4.04,0,4.04-4.28,0,4.28,3.77,4.28c-3.77,1.7-3.77,3.67-3.77,6.62"/>
</svg>