<?xml version="1.0" encoding="UTF-8"?>
<svg id="Layer_1" data-name="Layer 1" xmlns="http://www.w3.org/2000/svg" viewBox="0 0 50 50">
  <defs>
    <style>
      .cls-1 {
        fill: #fff;
      }

      .cls-1, .cls-2 {
        stroke: #231f20;
        stroke-linejoin: round;
      }

      .cls-2 {
        fill: none;
      }
    </style>
  </defs>
  <path class="cls-1" d="M38.18,37.96c-7.89-1.3-10.98-6.03-10.88-12.78.02-1.15.7-2.18,1.71-2.71,2.69-1.41,4.55-4.44,4.55-7.97s-1.84-5.41-4.6-6.49c-.37-.15-.59-.55-.5-.93.11-.49.09-1.02-.14-1.59-.33-.82-1.06-1.45-1.92-1.64-1.77-.38-3.33.96-3.33,2.66,0,.19.02.38.06.56.09.39-.13.79-.5.93-2.82,1.07-4.89,2.89-4.89,6.5,0,3.3,1.63,6.17,4.04,7.68,1.13.71,1.91,1.87,2.02,3.2.52,6.57-3.23,10.8-11.99,12.58-.15.03-.12.26.04.26,3.97,0,22.08,0,26.3,0,.16,0,.19-.24.03-.26Z"/>
  <path class="cls-2" d="M29.04,16.61l-5.7,2.04c-.4.14-.8-.2-.73-.62l1.08-5.96c.08-.42.58-.6.9-.32l4.62,3.92c.32.27.23.8-.17.94Z"/>
</svg>