<?xml version="1.0" encoding="UTF-8"?>
<svg id="Layer_1" data-name="Layer 1" xmlns="http://www.w3.org/2000/svg" viewBox="0 0 50 50">
  <defs>
    <style>
      .cls-1 {
        fill: #fff;
      }

      .cls-1, .cls-2, .cls-3 {
        stroke: #231f20;
        stroke-linejoin: round;
      }

      .cls-2 {
        fill: none;
      }

      .cls-3 {
        fill: #231f20;
      }
    </style>
  </defs>
  <path class="cls-3" d="M25,20.54c0-2.95,0-4.91-4.04-6.62q4.04,0,4.04-4.28,0,4.28,3.77,4.28c-3.77,1.7-3.77,3.67-3.77,6.62"/>
  <g>
    <path class="cls-1" d="M13.32,35.38v3.89c0,.6.49,1.09,1.09,1.09h21.17c.6,0,1.09-.49,1.09-1.09v-3.89c0-.28-.11-.56-.31-.77-7.58-7.87-15.16-7.87-22.73,0-.2.2-.31.48-.31.77Z"/>
    <line class="cls-1" x1="25" y1="11.62" x2="25" y2="34.66"/>
    <path class="cls-2" d="M25,22.4c2.05-2.5,5.27-3.66,8.31-2.98,3.66.82,5.76,4.03,6.33,6.87.83,4.16-1.66,7.29-2.62,8.3-.21.22-.49.34-.8.34H13.78c-.3,0-.59-.12-.8-.34-.95-1.01-3.45-4.14-2.62-8.3.57-2.84,2.67-6.06,6.33-6.87,3.03-.68,6.25.49,8.31,2.98"/>
  </g>
</svg>