<?xml version="1.0" encoding="UTF-8"?>
<svg id="Layer_1" data-name="Layer 1" xmlns="http://www.w3.org/2000/svg" viewBox="0 0 50 50">
  <defs>
    <style>
      .cls-1 {
        fill: #fff;
        stroke: #231f20;
        stroke-linejoin: round;
      }
    </style>
  </defs>
  <path class="cls-1" d="M11.44,38.19h22.33c.91,0,1.3-1.15.57-1.7-2.07-1.55-4.95-3.73-7-6.25-3.26-4.01-3.57-7.83-2.89-11.97.09-.55.81-.67,1.08-.18.69,1.28,1.67,2.9,5.35,1.96,4.66-1.18,6.49,2.38,7.87,1.17l.4-.53c.57-.76.44-1.84-.3-2.44l-11.29-8.68c-.57-.44-.93-1.1-.98-1.82l-.12-1.62c-.02-.29-.37-.43-.59-.24-9.44,8.41-14.85,17.88-15.38,31.31-.02.53.41.98.95.98Z"/>
</svg>