<?xml version="1.0" encoding="UTF-8"?>
<svg id="Layer_1" data-name="Layer 1" xmlns="http://www.w3.org/2000/svg" viewBox="0 0 50 50">
  <defs>
    <style>
      .cls-1 {
        fill: #fff;
        stroke: #231f20;
        stroke-linejoin: round;
      }
    </style>
  </defs>
  <path class="cls-1" d="M36.37,38.4c-3.46-1.81-6.21-4.52-8.33-8.02-.54-.89-.26-2.06.62-2.62,1.93-1.22,3.21-3.36,3.21-5.81,0-2.76-1.64-5.14-3.99-6.23-.29-.13-.43-.45-.34-.75.14-.47.14-.99-.05-1.54-.32-.92-1.15-1.63-2.12-1.76-1.62-.22-3,1.03-3,2.61,0,.24.04.48.1.7.09.31-.05.62-.34.75-2.35,1.09-3.98,3.46-3.98,6.23,0,2.38,1.22,4.48,3.06,5.71.85.56,1.1,1.7.58,2.58-2.16,3.65-4.85,6.42-8.16,8.17-.26.33-.02.82.4.82h21.94c.42,0,.66-.49.4-.82Z"/>
</svg>