<?xml version="1.0" encoding="UTF-8"?>
<svg id="Layer_1" data-name="Layer 1" xmlns="http://www.w3.org/2000/svg" viewBox="0 0 50 50">
  <defs>
    <style>
      .cls-1 {
        fill: #fff;
        stroke: #231f20;
        stroke-linejoin: round;
      }
    </style>
  </defs>
  <path class="cls-1" d="M35.8,38.93c.42,0,.77-.3.83-.71l2.72-15.74c.12-.51-.51-.85-.87-.47l-8.2,8.51c-.28.29-.77.16-.87-.23l-3.63-14.51c-.13-.52-.88-.52-1,0l-3.49,14.51c-.09.39-.59.53-.87.24l-8.44-8.61c-.36-.37-.97-.04-.87.46l2.72,15.84c.06.42.41.73.84.73h21.13Z"/>
  <circle class="cls-1" cx="25.24" cy="15.37" r="3.03"/>
  <circle class="cls-1" cx="38.98" cy="21.44" r="3.03"/>
  <circle class="cls-1" cx="11.02" cy="21.44" r="3.03"/>
</svg>