<?xml version="1.0" encoding="UTF-8"?>
<svg id="Layer_1" data-name="Layer 1" xmlns="http://www.w3.org/2000/svg" viewBox="0 0 50 50">
  <defs>
    <style>
      .cls-1 {
        fill: #fff;
        stroke: #231f20;
        stroke-linejoin: round;
      }
    </style>
  </defs>
  <path class="cls-1" d="M31.47,20.09h5.35c.57,0,1.03-.46,1.03-.8v-7.87c0-1.66-.32-1.98-.72-1.98h-3.5c-.57,0-1.03.46-1.03,1.03v3.84c0,.57-.47,1.03-1.04,1.03h-2.73c-.57,0-1.03-.46-1.03-1.03v-3.84c0-.57-.46-1.03-1.03-1.03h-3.54c-.57,0-1.03.46-1.03,1.03v3.84c0,.57-.47,1.03-1.04,1.03h-3.09c-.57,0-1.03-.46-1.03-1.03v-3.84c0-.57-.46-1.03-1.03-1.03h-3.14c-.39,0-.71.32-.71,1.98v7.87c0,.34.47.8,1.04.8h5.79c.57,0,1.03.46,1.03,1.03l-2.27,12.62c0,.57-.46,1.03-1.03,1.03h-3.17c-.57,0-1.03.46-1.03,1.03v3.71c0,.57.46,1.03,1.03,1.03h22.9c.57,0,1.03-.46,1.03-1.03v-3.71c0-.57-.46-1.03-1.03-1.03h-3.17c-.57,0-1.03-.46-1.03-1.03l-1.81-12.62c0-.57.46-1.03,1.03-1.03Z"/>
</svg>