<?xml version="1.0" encoding="UTF-8"?>
<svg id="Layer_1" data-name="Layer 1" xmlns="http://www.w3.org/2000/svg" viewBox="0 0 50 50">
  <defs>
    <style>
      .cls-1 {
        fill: #fff;
        stroke: #231f20;
        stroke-linejoin: round;
      }
    </style>
  </defs>
  <path class="cls-1" d="M31.55,15.35c.57,0,1.03-.46,1.03-1.03v-3.84c0-.57.47-1.03,1.04-1.03h3.5c.39,0,.71.32.71,1.98v7.87c0,.34-.46.8-1.03.8h-5.35c-.57,0-1.03.46-1.03,1.03l1.81,12.62c0,.57.46,1.03,1.03,1.03h3.17c.57,0,1.03.46,1.03,1.03v3.71c0,.57-.46,1.03-1.03,1.03H13.55c-.57,0-1.03-.46-1.03-1.03v-3.71c0-.57.46-1.03,1.03-1.03h3.17c.57,0,1.03-.46,1.03-1.03l2.27-12.62c0-.57-.46-1.03-1.03-1.03h-5.79c-.57,0-1.03-.46-1.03-.8v-7.87c0-1.66.31-1.98.71-1.98h3.14c.57,0,1.03.46,1.03,1.03v3.84c0,.57.46,1.03,1.03,1.03h13.49Z"/>
  <path class="cls-1" d="M28.48,9.76l-6.59,2.36c-.4.14-.8-.2-.73-.62l1.25-6.88c.08-.42.58-.6.9-.32l5.33,4.53c.32.27.23.8-.17.94Z"/>
</svg>