<?xml version="1.0" encoding="UTF-8"?>
<svg id="Layer_1" data-name="Layer 1" xmlns="http://www.w3.org/2000/svg" viewBox="0 0 400 242.81">
  <defs>
    <style>
      .cls-1 {
        fill: #231f20;
      }
    </style>
  </defs>
  <path class="cls-1" d="M268.11,132.02c-2.69,2.19-4.21,5-4.56,8.46-.29,2.82-.16,4.68.38,5.59l10.94-8.92-6.21-5.53c-.18.14-.37.26-.55.41Z"/>
  <path class="cls-1" d="M147.71,115.94c-3.45-.35-6.52.57-9.21,2.76-2.69,2.2-4.21,5.01-4.56,8.44-.35,3.45.56,6.51,2.75,9.19,2.19,2.68,5.01,4.19,8.46,4.55s6.52-.56,9.21-2.73c2.68-2.17,4.21-4.99,4.56-8.44.35-3.43-.56-6.49-2.75-9.19s-5-4.23-8.45-4.58Z"/>
  <path class="cls-1" d="M288.64,157.29c-4.29,3.49-9.19,4.96-14.69,4.39-5.48-.56-9.97-2.99-13.46-7.29s-4.96-9.19-4.39-14.69c.55-5.33,2.86-9.7,6.9-13.15L143.96,20.45l-41.86,201.9,195.78-64.7-5.13-4.57c-1.9,2.12-3.28,3.53-4.12,4.21ZM166.33,130.47c-.57,5.5-2.99,10-7.27,13.5s-9.17,4.96-14.68,4.39c-5.48-.56-9.96-2.99-13.46-7.29-3.49-4.29-4.96-9.19-4.39-14.69.57-5.5,3-10,7.29-13.49,4.29-3.49,9.18-4.96,14.66-4.4,5.5.57,9.99,3,13.48,7.29s4.94,9.19,4.37,14.69ZM182.82,141.06c2.19,2.69,4.99,4.21,8.42,4.56,3.45.35,6.52-.55,9.22-2.73.34-.29,1.03-.95,2.08-1.98l6.97,3.33c-2.02,2.27-3.47,3.75-4.35,4.47-4.29,3.49-9.19,4.96-14.69,4.39-5.48-.56-9.96-2.99-13.46-7.29s-4.96-9.19-4.39-14.69c.57-5.5,3-10,7.29-13.49s9.18-4.96,14.66-4.4c5.5.57,10,3,13.49,7.29.71.87,1.83,2.6,3.35,5.19l-7.51,1.91c-.82-1.24-1.37-2.04-1.66-2.4-2.18-2.67-4.99-4.19-8.44-4.54-3.43-.35-6.48.56-9.17,2.75-2.69,2.19-4.21,5-4.56,8.46-.35,3.43.56,6.48,2.75,9.17ZM248.16,134.44l-2.41,23.4-7.24-.75,2.38-23.12c.21-2.08-.19-3.91-1.22-5.51s-2.81-2.53-5.35-2.79c-3.01-.31-5.5,1.06-7.49,4.11l-2.66,25.84-7.27-.75,5.75-55.96,7.27.75-2.45,23.85c2.43-3.69,5.57-5.33,9.41-4.93,3.85.4,6.78,2.09,8.79,5.09,2.01,3,2.84,6.59,2.48,10.77Z"/>
  <path class="cls-1" d="M274.72,154.2c3.45.36,6.52-.55,9.22-2.73.34-.29,1.03-.95,2.08-1.98l5.86,2.8-11.49-10.24-12.12,9.86c1.1,1.2,3.25,1.96,6.45,2.29Z"/>
  <path class="cls-1" d="M39.35,93.14c4.59-3.72,9.81-5.28,15.66-4.68,5.41.56,10.38,3.31,14.91,8.25l5.93-4.37c-6-6.72-12.7-10.46-20.09-11.22-7.9-.81-14.93,1.29-21.08,6.31-6.15,5.02-9.63,11.47-10.44,19.35-.81,7.9,1.28,14.93,6.28,21.07,5,6.14,11.45,9.62,19.35,10.44,7.41.76,14.28-1.31,20.61-6.22l2.05-19.9-7.24-.74-1.74,16.89c-3.58,2.32-7.89,3.22-12.93,2.7-5.85-.6-10.65-3.19-14.38-7.77-3.74-4.58-5.3-9.82-4.69-15.71.6-5.88,3.2-10.67,7.79-14.4Z"/>
  <path class="cls-1" d="M120.23,125.74c.57-5.5-.89-10.4-4.37-14.69s-7.97-6.72-13.48-7.29c-5.48-.56-10.37.9-14.66,4.39-4.29,3.49-6.72,7.99-7.29,13.49-.57,5.5.9,10.4,4.39,14.69,3.49,4.29,7.98,6.72,13.46,7.29,5.5.57,10.39-.9,14.68-4.39s6.71-7.99,7.27-13.5ZM112.82,124.97c-.35,3.45-1.88,6.26-4.56,8.44-2.69,2.17-5.75,3.08-9.21,2.73-3.45-.36-6.27-1.87-8.46-4.55-2.19-2.67-3.1-5.74-2.75-9.19.35-3.43,1.87-6.24,4.56-8.44,2.69-2.2,5.76-3.12,9.21-2.76,3.45.35,6.27,1.88,8.45,4.58s3.1,5.76,2.75,9.19Z"/>
  <path class="cls-1" d="M277.28,129.27c2.84.29,4.64.8,5.39,1.51l-7.8,6.36,5.52,4.92,8.9-7.24,4.02-3.3c-.97-1.35-1.56-2.15-1.77-2.41-.5-.62-1.02-1.2-1.55-1.75-3.25-3.21-7.23-5.06-11.94-5.54-5.48-.56-10.37.9-14.66,4.4-.14.11-.25.23-.39.35l5.66,5.05c2.55-1.88,5.42-2.67,8.62-2.34Z"/>
  <path class="cls-1" d="M292.99,152.83l-1.11-.53.88.79c.08-.09.15-.17.23-.26Z"/>
  <path class="cls-1" d="M312.62,135.36c.55-.45,1.18-.64,1.88-.57.7.07,1.24.34,1.61.8.14.2.27.61.37,1.21l7.24-1.31c-.19-1.62-.86-3.14-2.01-4.55-1.61-2-3.76-3.14-6.47-3.42-2.71-.28-5.11.45-7.22,2.17-2.11,1.73-3.3,3.94-3.58,6.65-.28,2.68.44,5.08,2.16,7.18.98,1.21,2.71,2.66,5.17,4.35,1.79,1.41,2.94,2.43,3.46,3.08.75.93,1.07,1.98.95,3.17-.13,1.24-.66,2.23-1.6,2.98-.94.75-2,1.07-3.19.94-1.19-.12-2.17-.65-2.95-1.58-.4-.49-.65-1.28-.75-2.37l-7.36.8c.25,2.38,1.08,4.43,2.48,6.16,2.03,2.52,4.64,3.94,7.83,4.27,3.22.33,6.07-.52,8.55-2.57s3.89-4.67,4.22-7.89c.32-3.15-.53-5.98-2.55-8.5-1.17-1.44-3.12-3.1-5.85-4.98-1.46-1.16-2.39-1.98-2.79-2.44-.44-.54-.62-1.16-.55-1.86.07-.7.38-1.27.94-1.72Z"/>
  <path class="cls-1" d="M345.86,144.55c-1.46-1.16-2.39-1.98-2.79-2.44-.44-.54-.62-1.16-.55-1.86.07-.7.38-1.27.94-1.72.55-.45,1.18-.64,1.88-.57.7.07,1.24.34,1.61.8.14.2.27.61.37,1.21l7.24-1.31c-.19-1.62-.86-3.14-2.01-4.55-1.61-2-3.76-3.14-6.47-3.42-2.7-.28-5.11.45-7.22,2.17-2.11,1.73-3.3,3.94-3.58,6.65-.28,2.68.44,5.08,2.16,7.18.98,1.21,2.71,2.66,5.17,4.35,1.79,1.41,2.94,2.43,3.46,3.08.75.93,1.07,1.98.95,3.17-.13,1.24-.66,2.23-1.6,2.98-.94.75-2,1.07-3.19.94s-2.17-.65-2.95-1.58c-.4-.49-.65-1.28-.75-2.37l-7.36.8c.25,2.38,1.08,4.43,2.48,6.16,2.03,2.52,4.64,3.94,7.83,4.27,3.22.33,6.07-.53,8.55-2.57,2.48-2.04,3.89-4.67,4.22-7.89.32-3.15-.53-5.98-2.55-8.5-1.17-1.44-3.12-3.1-5.85-4.98Z"/>
</svg>