<?xml version="1.0" encoding="UTF-8"?>
<svg id="Layer_1" data-name="Layer 1" xmlns="http://www.w3.org/2000/svg" viewBox="0 0 400 242.81">
  <defs>
    <style>
      .cls-1 {
        fill: #231f20;
      }
    </style>
  </defs>
  <path class="cls-1" d="M132.06,138.39c2.12.22,3.97-.02,5.56-.69,1.59-.67,2.93-1.66,4.03-2.95,1.1-1.28,1.97-2.81,2.6-4.6.63-1.79,1.05-3.69,1.25-5.73.25-2.52.2-4.75-.17-6.7-.37-1.94-1-3.59-1.9-4.96-.91-1.37-2.07-2.44-3.48-3.23-1.42-.78-3.03-1.27-4.85-1.45-.26-.03-.48.02-.73,0l-6.08,29.32c1.14.48,2.36.84,3.75.98Z"/>
  <path class="cls-1" d="M275.77,139.85l-15.7-1.58c-.42,4.18.42,7.5,2.53,9.97,2.11,2.47,5.36,3.93,9.75,4.38,1.19.12,2.39.19,3.59.22,1.21.02,2.37.01,3.5-.04,1.12-.05,2.21-.12,3.24-.22,1.04-.1,2-.23,2.9-.39l-.5,5.01,7.39-2.44-16.71-14.89Z"/>
  <path class="cls-1" d="M270.73,158.41c-3.5-.35-6.45-1.14-8.88-2.34-2.43-1.21-4.36-2.79-5.79-4.76-1.44-1.96-2.41-4.29-2.91-6.99-.52-2.69-.6-5.7-.27-9.01.29-2.87.97-5.55,2.07-8.03.63-1.45,1.42-2.74,2.29-3.95L150.88,28.53l-15.25,73.56c.17.01.32-.01.5,0,2.93.3,5.51,1.02,7.74,2.16,2.23,1.15,4.06,2.67,5.5,4.58,1.44,1.92,2.45,4.21,3.05,6.9.59,2.69.72,5.72.37,9.09-.32,3.17-1.06,6.03-2.22,8.59-1.17,2.56-2.68,4.69-4.55,6.41-1.87,1.72-4.07,2.98-6.59,3.78-2.52.8-5.31,1.05-8.38.74-1.43-.14-2.76-.4-4.02-.74l-14.65,70.67,169.23-55.93c-1.09.11-2.06.28-3.27.32-2.46.1-5,.01-7.6-.25ZM195.99,117.05c-1.68-1.1-3.4-1.96-5.19-2.56-1.79-.61-3.66-1.01-5.61-1.21-1.82-.18-3.57,0-5.26.52-1.68.53-3.2,1.39-4.55,2.56-1.35,1.18-2.47,2.67-3.37,4.47-.89,1.8-1.46,3.89-1.7,6.24-.5,4.94.33,8.75,2.48,11.45,2.15,2.69,5.36,4.26,9.62,4.69,1.92.19,3.81.16,5.66-.09s3.65-.72,5.43-1.42l-.66,6.59c-1.92.52-3.86.85-5.84,1-1.97.14-3.99.11-6.05-.1-6.45-.65-11.25-2.9-14.38-6.75-3.14-3.85-4.36-9.14-3.68-15.87.33-3.22,1.12-6.11,2.39-8.64,1.27-2.53,2.9-4.64,4.91-6.33,2-1.68,4.32-2.91,6.95-3.67s5.45-.99,8.49-.68c2.11.21,4.08.56,5.9,1.04,1.81.48,3.53,1.15,5.15,2l-.68,6.75ZM242.28,127.88l-2.69,26.65-7.07-.71,2.62-26.08c.32-3.14-.03-5.56-1.06-7.24s-2.64-2.62-4.83-2.85c-.95-.1-1.85-.05-2.7.12-.86.18-1.77.54-2.73,1.08-.95.55-2.02,1.31-3.18,2.29-1.17.98-2.53,2.21-4.08,3.7l-2.73,27.09-7.07-.71,5.79-57.49,7.07.71-1.68,16.64-.89,6.4c1.24-1.21,2.45-2.22,3.61-3.03,1.16-.8,2.31-1.43,3.44-1.89,1.13-.46,2.26-.76,3.4-.89,1.13-.13,2.3-.14,3.5-.02,4.07.42,7.09,1.97,9.06,4.68,1.98,2.7,2.71,6.55,2.21,11.54Z"/>
  <path class="cls-1" d="M262.17,127.91c-.72,1.47-1.24,3.09-1.56,4.89l8.18.83-6.54-5.83s-.06.07-.08.11Z"/>
  <path class="cls-1" d="M50.34,80.99c-3.74-.37-7.23-.09-10.46.86-3.24.95-6.08,2.52-8.53,4.69-2.45,2.18-4.47,4.93-6.04,8.27-1.57,3.34-2.57,7.19-3.01,11.56-.44,4.39-.28,8.31.48,11.76.76,3.44,2.06,6.39,3.88,8.84,1.83,2.44,4.14,4.38,6.94,5.81,2.8,1.43,6.02,2.33,9.65,2.7,1.19.12,2.43.18,3.72.17,1.29-.01,2.6-.09,3.91-.23,1.32-.14,2.61-.35,3.89-.63,1.27-.29,2.49-.63,3.66-1.04l2.74-27.18-18.03-1.81-.6,5.98,10.86,1.09-1.7,16.93c-.45.12-.95.22-1.53.3-.57.07-1.16.14-1.77.17-.61.03-1.21.04-1.81.04-.6,0-1.16-.03-1.68-.09-3.01-.31-5.55-1.04-7.61-2.21-2.06-1.17-3.69-2.71-4.89-4.64-1.21-1.93-2-4.22-2.39-6.86-.4-2.64-.42-5.59-.1-8.85.31-3.12,1-5.92,2.06-8.42,1.06-2.49,2.44-4.59,4.13-6.26,1.69-1.68,3.68-2.91,5.98-3.69,2.3-.78,4.86-1.03,7.68-.74,2.47.25,4.72.77,6.75,1.56,2.03.8,3.98,1.82,5.85,3.08l.72-7.2c-1.88-1.12-3.89-2-6-2.64-2.11-.64-4.36-1.08-6.75-1.32Z"/>
  <path class="cls-1" d="M103.55,104.22c-1.44-1.92-3.27-3.44-5.5-4.59-2.23-1.14-4.81-1.86-7.74-2.15-3.06-.31-5.85-.06-8.38.74-2.52.8-4.72,2.06-6.58,3.78-1.87,1.72-3.39,3.84-4.55,6.37-1.16,2.53-1.9,5.38-2.22,8.55-.34,3.39-.21,6.43.37,9.12.59,2.7,1.61,5,3.05,6.93,1.43,1.92,3.27,3.46,5.49,4.6,2.23,1.15,4.81,1.86,7.74,2.16,3.07.31,5.86.06,8.38-.74,2.52-.8,4.72-2.06,6.59-3.78,1.87-1.72,3.39-3.85,4.55-6.41,1.17-2.55,1.9-5.42,2.22-8.59.34-3.37.22-6.39-.37-9.09-.59-2.69-1.61-4.99-3.05-6.9ZM99.7,119.79c-.2,2.04-.63,3.95-1.25,5.73-.63,1.79-1.5,3.32-2.6,4.61-1.1,1.29-2.45,2.27-4.03,2.94-1.59.67-3.44.91-5.56.7-1.84-.18-3.46-.67-4.87-1.46-1.4-.78-2.55-1.86-3.46-3.22-.91-1.36-1.54-3.03-1.9-4.98-.37-1.95-.42-4.19-.17-6.71.2-2,.62-3.91,1.25-5.69.63-1.79,1.5-3.33,2.6-4.61,1.1-1.29,2.45-2.27,4.03-2.94,1.59-.67,3.44-.91,5.56-.7,1.81.18,3.43.67,4.85,1.46,1.41.78,2.57,1.86,3.48,3.22.9,1.37,1.53,3.02,1.9,4.96s.42,4.17.17,6.69Z"/>
  <path class="cls-1" d="M127.19,136.94c-1.4-.79-2.55-1.86-3.46-3.22-.91-1.37-1.54-3.03-1.9-4.99-.37-1.95-.42-4.19-.17-6.71.2-2,.62-3.91,1.25-5.69.63-1.78,1.5-3.32,2.6-4.61,1.1-1.29,2.45-2.26,4.03-2.94,1.39-.59,3.03-.79,4.83-.69l1.24-5.99c-2.86-.23-5.5-.01-7.88.75-2.52.8-4.72,2.06-6.58,3.77-1.87,1.72-3.39,3.84-4.55,6.37-1.17,2.53-1.9,5.38-2.22,8.55-.34,3.39-.21,6.43.37,9.12.59,2.69,1.61,5,3.05,6.93,1.43,1.92,3.26,3.46,5.49,4.6,1.14.58,2.39,1.05,3.71,1.41l1.28-6.19c-.37-.16-.77-.28-1.12-.47Z"/>
  <path class="cls-1" d="M285,158l.08-.81-3.48,1.15c1.14-.11,2.39-.16,3.4-.34Z"/>
  <path class="cls-1" d="M264.81,124.23c1.03-1,2.22-1.72,3.54-2.19,1.34-.46,2.78-.62,4.33-.46,1.79.18,3.33.64,4.63,1.39,1.3.74,2.34,1.7,3.14,2.88.8,1.18,1.34,2.54,1.63,4.09.28,1.55.29,3.23.02,5.04l-13.3-1.34,6.97,6.22,12.99,1.31c.11-.59.22-1.23.31-1.9s.19-1.52.29-2.52c.29-2.9.17-5.56-.36-7.99-.55-2.43-1.48-4.53-2.82-6.33-1.34-1.79-3.06-3.24-5.17-4.36-2.1-1.12-4.58-1.82-7.43-2.11-2.93-.3-5.6,0-8.02.92-2.43.9-4.53,2.25-6.3,4.03-.74.74-1.39,1.58-2.01,2.44l5.01,4.47c.72-1.41,1.55-2.6,2.56-3.57Z"/>
  <path class="cls-1" d="M312.6,127.38c.8-.4,1.81-.67,3.05-.82,1.23-.15,2.73-.14,4.5.04,1.47.14,3.18.45,5.15.91,1.96.46,4.04,1.07,6.21,1.84l.63-6.31c-2.07-.64-4.08-1.16-6.01-1.53-1.94-.37-3.7-.64-5.3-.8-3.26-.33-6.01-.21-8.25.34-2.25.55-4.07,1.35-5.46,2.39-1.39,1.04-2.43,2.2-3.09,3.5-.67,1.31-1.06,2.53-1.17,3.67-.18,1.74,0,3.28.52,4.61.52,1.34,1.3,2.55,2.35,3.61,1.04,1.06,2.3,2.02,3.8,2.87,1.49.85,3.13,1.64,4.92,2.36,2.39.99,4.27,1.83,5.64,2.55,1.37.72,2.37,1.36,2.99,1.96.63.59,1.04,1.2,1.23,1.81.2.61.27,1.29.19,2.02-.18,1.71-1.12,2.94-2.84,3.7-1.72.76-4.27.96-7.67.62-2.33-.23-4.66-.65-6.99-1.24-2.32-.59-4.64-1.34-6.96-2.26l-.66,6.51c2.17.76,4.4,1.38,6.7,1.87,2.29.48,4.82.86,7.59,1.14,1.27.12,2.59.16,3.94.1,1.35-.05,2.67-.22,3.97-.5,1.3-.28,2.54-.67,3.71-1.19,1.18-.51,2.23-1.17,3.16-1.96.93-.8,1.7-1.74,2.3-2.83.6-1.1.97-2.36,1.12-3.8.16-1.51.07-2.89-.26-4.14-.33-1.24-.95-2.38-1.89-3.44-.93-1.05-2.19-2.05-3.77-2.99-1.57-.95-3.54-1.89-5.88-2.84-2.16-.87-3.91-1.66-5.23-2.36-1.33-.7-2.35-1.36-3.07-1.99-.71-.63-1.19-1.27-1.4-1.89-.22-.63-.3-1.31-.23-2.04.07-.74.31-1.4.7-2,.39-.61.98-1.11,1.77-1.51Z"/>
  <path class="cls-1" d="M375.53,149.61c-.93-1.05-2.19-2.05-3.77-2.99-1.57-.94-3.54-1.88-5.88-2.84-2.16-.87-3.91-1.66-5.23-2.36-1.33-.69-2.35-1.36-3.07-1.99-.71-.63-1.19-1.26-1.41-1.89-.22-.63-.29-1.31-.22-2.04.07-.73.31-1.4.7-2,.39-.61.98-1.11,1.77-1.51.8-.4,1.81-.67,3.05-.82,1.23-.15,2.73-.14,4.5.04,1.47.15,3.18.45,5.15.91,1.96.46,4.04,1.07,6.21,1.83l.63-6.3c-2.07-.65-4.08-1.16-6.01-1.53-1.94-.37-3.7-.65-5.3-.8-3.26-.33-6.01-.21-8.25.33-2.25.56-4.07,1.36-5.46,2.39-1.39,1.04-2.43,2.21-3.09,3.51-.67,1.3-1.06,2.53-1.17,3.67-.18,1.73,0,3.27.52,4.61.52,1.34,1.31,2.54,2.35,3.61,1.05,1.06,2.31,2.02,3.8,2.87,1.49.85,3.14,1.64,4.93,2.37,2.39.98,4.27,1.83,5.64,2.54,1.37.72,2.36,1.37,2.99,1.97.62.59,1.04,1.2,1.23,1.8.2.61.27,1.29.19,2.02-.18,1.71-1.12,2.94-2.85,3.7-1.71.76-4.27.97-7.66.63-2.33-.24-4.66-.65-6.99-1.24-2.32-.59-4.64-1.34-6.96-2.26l-.66,6.51c2.17.76,4.4,1.39,6.7,1.87,2.29.48,4.82.86,7.59,1.14,1.27.13,2.59.16,3.94.11,1.35-.06,2.67-.22,3.97-.51,1.3-.27,2.54-.67,3.71-1.18,1.18-.52,2.23-1.17,3.16-1.97.93-.79,1.7-1.74,2.3-2.82.6-1.1.97-2.36,1.12-3.8.16-1.51.07-2.89-.26-4.13s-.95-2.39-1.89-3.44Z"/>
</svg>